<svg width="2852" height="2663" viewBox="0 0 2852 2663" fill="none" xmlns="http://www.w3.org/2000/svg">
<g opacity="0.8">
<rect x="1829" width="30" height="2663" fill="#32C8E1" fill-opacity="0.6"/>
<rect x="2852" y="1005" width="30.0001" height="2852" transform="rotate(90 2852 1005)" fill="#A67C52" fill-opacity="0.5"/>
<path fill-rule="evenodd" clip-rule="evenodd" d="M1960 2000C2328.93 2000 2628 1700.93 2628 1332C2628 963.074 2328.93 664 1960 664C1591.07 664 1292 963.074 1292 1332C1292 1700.93 1591.07 2000 1960 2000ZM1960 1949.9C2301.26 1949.9 2577.9 1673.26 2577.9 1332C2577.9 990.743 2301.26 714.1 1960 714.1C1618.74 714.1 1342.1 990.743 1342.1 1332C1342.1 1673.26 1618.74 1949.9 1960 1949.9Z" fill="#FFF04B" fill-opacity="0.6"/>
<rect x="1887" width="30" height="2663" fill="#FFA629" fill-opacity="0.5"/>
<rect x="2852" y="1063" width="30.0001" height="2852" transform="rotate(90 2852 1063)" fill="#4BC887" fill-opacity="0.5"/>
<rect x="1945" width="30" height="2663" fill="#9164CD" fill-opacity="0.5"/>
<rect x="2852" y="1121" width="30.0001" height="2852" transform="rotate(90 2852 1121)" fill="#DC4B55" fill-opacity="0.5"/>
</g>
</svg>
