<svg width="405" height="400" viewBox="0 0 405 400" fill="none" xmlns="http://www.w3.org/2000/svg">
<path d="M403.745 200C403.745 310.035 313.539 399.25 202.247 399.25C90.9555 399.25 0.75 310.035 0.75 200C0.75 89.9651 90.9555 0.75 202.247 0.75C313.539 0.75 403.745 89.9651 403.745 200Z" fill="#EEEEEE" fill-opacity="0.933333" stroke="black" stroke-width="1.5"/>
<path d="M386.765 200.523C386.765 300.91 304.38 382.295 202.746 382.295C101.112 382.295 18.7266 300.91 18.7266 200.523C18.7266 100.136 101.112 18.7505 202.746 18.7505C304.38 18.7505 386.765 100.136 386.765 200.523Z" fill="white" stroke="black" stroke-width="0.5"/>
<mask id="mask0_1173_55513" style="mask-type:luminance" maskUnits="userSpaceOnUse" x="19" y="18" width="367" height="365">
<path d="M202.782 382.567C303.86 382.567 385.8 301.073 385.8 200.545C385.8 100.017 303.86 18.5229 202.782 18.5229C101.704 18.5229 19.7637 100.017 19.7637 200.545C19.7637 301.073 101.704 382.567 202.782 382.567Z" fill="white"/>
</mask>
<g mask="url(#mask0_1173_55513)">
<path d="M202.158 34.083C110.997 34.083 36.8281 107.848 36.8281 198.514C36.8281 289.179 110.997 362.944 202.158 362.944C293.32 362.944 367.488 289.179 367.488 198.514C367.488 107.848 293.32 34.083 202.158 34.083ZM202.158 345.108C120.894 345.108 54.7823 279.356 54.7823 198.534C54.7823 117.712 120.894 51.9599 202.158 51.9599C283.422 51.9599 349.534 117.712 349.534 198.534C349.554 279.356 283.422 345.108 202.158 345.108Z" fill="#FFF04B"/>
<path opacity="0.7" d="M450.917 215.622H-54.418L-26.8527 182.777H478.483L450.917 215.622Z" fill="#4BC887"/>
<path opacity="0.7" d="M487.669 163.614H-17.666L9.89922 130.769H515.235L487.669 163.614Z" fill="#A67C52"/>
<path opacity="0.7" d="M162.949 514.463V-79.0112L129.924 -46.654V546.841L162.949 514.463Z" fill="#32C8E1"/>
<path opacity="0.7" d="M217.947 483.383V-110.091L184.922 -77.7132V515.761L217.947 483.383Z" fill="#FFBB33"/>
<path opacity="0.7" d="M273.039 442.314V-151.161L240.014 -118.783V474.691L273.039 442.314Z" fill="#9164CD"/>
<path opacity="0.7" d="M423.324 267.641H-82.0117L-54.4465 234.795H450.889L423.324 267.641Z" fill="#DC4B55"/>
</g>
<path d="M107.519 281.264C106.926 282.241 106.885 282.342 106.149 284.62C100.955 299.873 92.3659 309.29 77.8063 315.778C76.1908 312.849 74.6163 310.856 72.0806 308.456C79.0332 306.076 84.8203 302.599 88.7056 298.47C86.0063 296.233 82.8163 294.138 79.5854 292.43L84.7385 286.288C88.9101 288.525 90.8732 289.745 93.7565 291.84C95.5151 289.155 97.0897 285.8 97.969 282.912L84.3909 283.014C81.8961 287.447 77.7245 292.369 73.2053 296.233C71.099 293.894 69.0337 292.288 66.1504 290.722C73.5938 285.108 79.0946 277.461 81.2008 269.896L89.9734 271.604C89.4827 272.54 88.7874 273.902 87.8672 275.855L99.2368 275.753H100.075C99.4822 274.431 98.8483 273.211 97.8667 271.665L102.815 270.343C104.329 272.723 105.31 274.838 106.292 277.705L104.615 278.193L107.519 281.264ZM109.768 268.635C111.24 270.933 112.079 272.682 113.306 275.855L108.541 277.319C107.212 273.862 106.373 272.051 105.065 269.916L109.768 268.635Z" fill="black" stroke="black" stroke-width="1.5982" stroke-miterlimit="10"/>
<path d="M154.115 276.199C153.031 277.134 152.99 277.175 152.213 278.009C148.348 281.954 144.851 284.985 140.884 287.811V306.583C140.884 310.59 140.925 311.851 141.171 314.474H131.662C131.907 311.891 131.948 310.813 131.948 306.624V293.16C126.856 296.13 122.93 297.899 115.916 300.38C114.587 297.106 113.605 295.499 111.213 292.53C121.846 289.561 129.351 285.9 137.244 279.859C141.457 276.687 144.749 273.372 146.16 270.931L154.115 276.199Z" fill="black" stroke="black" stroke-width="1.5982" stroke-miterlimit="10"/>
<path d="M174.118 275.896C174.015 276.242 173.975 276.588 173.975 276.669C173.934 276.811 173.831 277.3 173.77 278.032L173.627 279.008L173.422 280.126C171.459 295.054 167.738 305.183 161.255 313.094C159.108 310.958 155.959 308.66 153.26 307.298C159.926 300.566 164.527 287.265 164.772 274.249L174.118 275.896ZM188.432 274.208C188.432 274.249 188.432 274.31 188.432 274.412C188.432 276.222 189.352 281.815 190.19 284.987C192.644 294.404 195.732 300.729 200.926 306.972C197.695 308.925 195.487 310.674 193.176 313.114C186.653 304.633 182.399 293.326 180.539 279.679C180.498 279.191 180.436 278.845 180.436 278.744L180.089 276.893L180.048 276.405C180.048 276.405 179.946 276.12 179.843 275.815L188.432 274.208ZM192.808 271.707C194.035 274.005 195.057 276.486 195.937 279.557L192.072 280.777C191.377 278.052 190.354 275.225 189.127 272.724L192.808 271.707ZM197.941 278.967C197.204 276.384 196.182 273.761 194.894 271.32L198.513 270.202C199.924 272.683 200.906 275.022 201.601 277.605L197.941 278.967Z" fill="black" stroke="black" stroke-width="1.5982" stroke-miterlimit="10"/>
<path d="M204.378 288.048C206.689 288.394 209.327 288.496 214.418 288.496H237.853C242.761 288.496 244.621 288.394 247.893 288.048V297.465C245.542 297.221 243.374 297.18 237.792 297.18H214.459C208.979 297.18 207.343 297.221 204.357 297.465V288.048H204.378Z" fill="black" stroke="black" stroke-width="1.5982" stroke-miterlimit="10"/>
<path d="M261.665 273.662C264.405 278.543 266.02 282.488 268.229 289.708L259.068 292.738C257.657 286.739 255.387 280.597 253.035 276.306L261.665 273.662ZM292.686 275.716C292.236 276.692 292.236 276.692 291.356 280.638C289.455 289.566 285.61 297.742 280.825 303.355C276.96 307.89 272.094 311.653 265.632 315.008C263.669 311.795 262.094 309.985 259.17 307.504C263.525 305.653 265.979 304.189 269.272 301.646C275.938 296.379 279.803 289.952 282.216 280.394C282.85 277.811 283.197 275.614 283.3 273.56L292.686 275.716Z" fill="black" stroke="black" stroke-width="1.5982" stroke-miterlimit="10"/>
<path d="M303.437 273.615C309.612 277.215 312.802 279.472 316.913 283.174L311.126 290.78C306.852 286.347 302.701 283.133 297.793 280.489L303.437 273.615ZM298.284 303.878C303.294 303.491 308.426 302.271 313.048 300.359C319.223 297.817 323.64 294.177 327.403 288.319C329.468 285.208 330.777 282.523 332.208 278.761C334.601 281.628 335.746 282.604 339.407 285.289C334.949 294.888 330.286 300.644 323.436 305.037C318.14 308.454 313.477 310.243 304.357 312.359C302.455 312.806 302.149 312.847 300.819 313.233L298.284 303.878Z" fill="black" stroke="black" stroke-width="1.5982" stroke-miterlimit="10"/>
<path d="M107.519 279.652C106.926 280.628 106.885 280.73 106.149 283.008C100.955 298.261 92.366 307.678 77.8063 314.165C76.1908 311.237 74.6163 309.244 72.0806 306.844C79.0332 304.464 84.8203 300.986 88.7056 296.858C86.0063 294.621 82.8163 292.526 79.5854 290.818L84.7385 284.676C88.9101 286.913 90.8732 288.133 93.7565 290.228C95.5151 287.543 97.0897 284.187 97.969 281.3L84.3909 281.401C81.8961 285.835 77.7245 290.757 73.2053 294.621C71.099 292.282 69.0337 290.675 66.1504 289.109C73.5938 283.496 79.0946 275.849 81.2008 268.283L89.9734 269.992C89.4827 270.927 88.7874 272.29 87.8672 274.242L99.2368 274.141H100.075C99.4822 272.819 98.8483 271.598 97.8667 270.053L102.815 268.731C104.329 271.11 105.31 273.225 106.292 276.093L104.615 276.581L107.519 279.652ZM109.768 267.022C111.24 269.321 112.079 271.07 113.306 274.242L108.541 275.707C107.212 272.249 106.373 270.439 105.065 268.304L109.768 267.022Z" fill="white" stroke="black"/>
<path d="M154.115 274.587C153.031 275.522 152.99 275.563 152.213 276.397C148.348 280.342 144.851 283.373 140.884 286.2V304.971C140.884 308.978 140.925 310.239 141.171 312.862H131.662C131.907 310.28 131.948 309.202 131.948 305.012V291.548C126.856 294.518 122.93 296.287 115.916 298.768C114.587 295.494 113.605 293.887 111.213 290.918C121.846 287.949 129.351 284.288 137.244 278.248C141.457 275.075 144.749 271.76 146.16 269.319L154.115 274.587Z" fill="white" stroke="black"/>
<path d="M174.118 274.304C174.015 274.65 173.975 274.996 173.975 275.077C173.934 275.22 173.831 275.708 173.77 276.44L173.627 277.416L173.422 278.535C171.459 293.463 167.738 303.591 161.255 311.502C159.108 309.367 155.959 307.068 153.26 305.706C159.926 298.974 164.527 285.673 164.773 272.657L174.118 274.304ZM188.432 272.596C188.432 272.637 188.432 272.698 188.432 272.799C188.432 274.609 189.352 280.202 190.191 283.375C192.644 292.791 195.732 299.116 200.926 305.36C197.695 307.312 195.487 309.062 193.176 311.502C186.653 303.021 182.399 291.713 180.539 278.067C180.498 277.579 180.436 277.233 180.436 277.131L180.089 275.281L180.048 274.793C180.048 274.793 179.946 274.508 179.843 274.203L188.432 272.596ZM192.808 270.095C194.035 272.393 195.057 274.874 195.937 277.945L192.072 279.165C191.377 276.44 190.354 273.613 189.127 271.111L192.808 270.095ZM197.941 277.375C197.204 274.793 196.182 272.169 194.894 269.728L198.513 268.61C199.924 271.091 200.906 273.43 201.601 276.013L197.941 277.375Z" fill="white" stroke="black"/>
<path d="M204.378 286.439C206.689 286.785 209.327 286.886 214.418 286.886H237.853C242.761 286.886 244.621 286.785 247.893 286.439V295.855C245.542 295.611 243.374 295.571 237.791 295.571H214.459C208.979 295.571 207.343 295.611 204.357 295.855V286.439H204.378Z" fill="white" stroke="black"/>
<path d="M261.659 272.049C264.399 276.93 266.014 280.876 268.223 288.096L259.062 291.126C257.651 285.127 255.381 278.985 253.029 274.693L261.659 272.049ZM292.68 274.104C292.23 275.08 292.23 275.08 291.351 279.025C289.449 287.954 285.604 296.129 280.819 301.742C276.955 306.278 272.088 310.04 265.626 313.396C263.663 310.183 262.088 308.373 259.164 305.891C263.52 304.041 265.973 302.576 269.266 300.034C275.932 294.767 279.797 288.34 282.21 278.781C282.844 276.198 283.192 274.002 283.294 271.948L292.68 274.104Z" fill="white" stroke="black"/>
<path d="M303.437 272.003C309.612 275.603 312.802 277.86 316.913 281.562L311.126 289.168C306.852 284.734 302.701 281.521 297.793 278.877L303.437 272.003ZM298.284 302.286C303.294 301.899 308.426 300.679 313.048 298.767C319.223 296.225 323.64 292.585 327.403 286.727C329.468 283.616 330.777 280.931 332.208 277.169C334.601 280.036 335.746 281.013 339.407 283.697C334.949 293.297 330.286 299.052 323.436 303.445C318.14 306.862 313.477 308.652 304.357 310.767C302.455 311.214 302.149 311.255 300.819 311.641L298.284 302.286Z" fill="white" stroke="black"/>
<path d="M67.2027 201.747C76.3229 207.32 82.1509 211.631 88.9399 217.773C95.3609 211.387 98.8781 206.384 103.786 196.622H65.9144C58.4301 204.757 52.2545 209.638 42.5412 215.089C38.5741 208.459 35.5272 204.635 30.3945 199.754C46.5288 192.433 56.6919 183.362 62.7652 170.59H45.4654C39.3921 170.59 35.6499 170.814 31.3352 171.281V152.917C35.5477 153.384 39.6375 153.608 45.4654 153.608H121.883C127.834 153.608 131.924 153.384 135.911 152.917V171.281C131.596 170.814 127.609 170.59 121.883 170.59H82.8461C81.2102 174.658 80.0446 176.752 78.0611 180.23H107.978C113.111 180.23 115.115 180.108 117.548 179.762L127.118 188.711C126.177 190.46 126.177 190.46 123.621 196.622C120.002 205.103 114.153 214.743 107.957 222.777C98.735 234.633 86.6905 243.684 70.1064 251.005C62.7448 254.381 56.4465 256.476 47.2036 258.917C43.7068 251.371 41.6006 247.873 36.4474 241.142C51.9886 238.925 63.665 234.979 75.0142 228.471C68.6954 222.655 63.7877 218.953 55.2605 213.604L67.2027 201.747Z" fill="black" stroke="black" stroke-width="1.587" stroke-miterlimit="10"/>
<path d="M163.968 218.24C161.044 218.24 158.59 218.362 156.607 218.362C156.729 216.959 156.832 215.698 156.832 213.013V210.451C153.56 210.451 150.411 210.573 147.139 210.797V199.651C149.818 199.997 152.046 200.119 156.832 200.119C156.709 198.838 156.709 198.838 156.361 196.641H172.598C172.25 198.024 172.127 198.614 172.127 200.119H182.066C181.943 198.838 181.943 198.838 181.595 196.865H197.607C197.259 198.024 197.136 198.716 197.136 200.119C201.349 200.119 202.167 199.997 204.968 199.651V210.797C202.514 210.451 201.921 210.451 197.136 210.451V213.013C197.136 216.044 197.136 217.081 197.361 218.362H196.196C194.335 218.24 193.394 218.24 190.122 218.24H185.092V220.681H196.666C200.879 220.681 202.146 220.681 204.15 220.559C203.925 222.877 203.925 223.345 203.925 227.29V230.422C203.925 234.266 203.925 234.958 204.15 237.622C200.879 237.398 199.713 237.398 196.441 237.398H185.337V240.185H201.349C202.862 240.185 203.332 240.185 204.498 240.185C205.786 236.808 206.482 234.144 206.829 230.89C207.524 225.541 207.995 216.593 207.995 209.617C207.995 204.044 207.77 200.099 207.402 197.638C211.267 197.862 213.352 197.984 220.141 197.984H238.361C246.193 197.984 247.584 197.984 250.856 197.638C250.631 200.668 250.508 203.455 250.508 209.495V244.944C250.508 255.173 246.071 258.428 232.513 258.428C231.47 258.428 230.652 258.427 225.499 258.305C224.558 251.797 223.863 248.767 221.757 243.54C222.922 243.662 223.74 243.764 224.333 243.886C226.44 244.11 229.118 244.354 230.284 244.354C233.331 244.354 234.599 243.662 234.599 241.913V237.968H221.389C219.63 246.693 216.604 253.424 211.226 259.932C205.97 255.051 205.152 254.462 199.304 250.76H185.276V251.452C185.276 254.929 185.399 256.678 185.746 259.119H168.447C168.794 256.8 168.917 254.706 168.917 251.452V250.76H157.936C152.905 250.76 150.104 250.882 146.484 251.228V239.717C149.634 240.063 152.68 240.185 158.161 240.185H168.917V237.398H157.343C153.478 237.398 152.905 237.398 149.511 237.622C149.736 235.649 149.736 234.368 149.736 230.524V227.27C149.736 223.325 149.736 222.389 149.511 220.538C151.494 220.66 152.905 220.66 157.097 220.66H169.019V218.22H163.968V218.24ZM167.363 163.166C161.289 163.166 158.59 163.288 154.398 163.511V150.495C158.836 150.963 163.273 151.085 169.694 151.085H230.325C236.746 151.085 241.081 150.963 245.396 150.495V163.511C241.183 163.288 238.627 163.166 232.533 163.166H207.545V165.952H239.445C244.353 165.952 248.668 165.83 252.533 165.606C252.185 168.392 252.062 170.365 252.062 175.368V180.839C252.062 185.842 252.185 187.571 252.655 190.723H235.478V176.873H207.545V183.137C207.545 188.486 207.668 191.74 208.015 194.75H190.266C190.613 191.028 190.736 187.428 190.736 183.137V176.873H164.214V190.703H146.914C147.384 187.673 147.507 185.354 147.507 180.819V175.348C147.507 170.589 147.384 168.494 147.037 165.586C151.004 165.809 153.457 165.931 160.124 165.931H190.736V163.145H167.363V163.166ZM163.15 227.657V230.789H169.817V227.657H163.15ZM167.485 187.917C168.651 188.14 169.714 188.14 172.618 188.14H182.311C186.401 188.018 186.401 188.018 187.341 187.917V194.425C185.93 194.201 185.01 194.201 182.311 194.201H172.618C169.939 194.201 168.999 194.201 167.485 194.425V187.917ZM167.588 179.192C168.999 179.415 169.817 179.415 172.618 179.415H182.434C185.112 179.415 186.298 179.415 187.464 179.192V185.822C185.828 185.598 185.48 185.598 182.434 185.598H172.618C170.042 185.598 169.346 185.598 167.588 185.822V179.192ZM172.148 211.264H182.086V208.478H172.148V211.264ZM184.417 230.789H191.083V227.657H184.417V230.789ZM232.206 185.822C230.223 185.598 229.875 185.598 227.176 185.598H215.949C213.373 185.598 212.678 185.598 210.919 185.822V179.192C212.432 179.415 213.025 179.415 215.949 179.415H227.176C230.1 179.415 230.673 179.415 232.206 179.192V185.822ZM232.206 194.425C230.693 194.201 229.527 194.201 227.176 194.201H215.949C213.618 194.201 212.33 194.201 210.919 194.425V187.917C212.432 188.14 213.25 188.14 215.949 188.14H227.176C229.855 188.14 230.673 188.14 232.206 187.917V194.425ZM223.086 223.813C222.963 225.44 222.963 226.009 222.861 227.758H234.66V223.813H223.086ZM234.66 209.881H223.331V213.725H234.66V209.881Z" fill="black" stroke="black" stroke-width="1.587" stroke-miterlimit="10"/>
<path d="M288.622 243.926C288.622 249.621 288.847 254.502 289.317 258.915H270.627C271.097 254.847 271.322 249.743 271.322 243.804V215.799C271.445 209.983 271.445 206.037 271.547 203.942C270.852 204.878 270.259 205.569 269.911 206.037C268.275 208.356 268.153 208.478 265.944 211.04C264.308 202.315 262.55 196.519 259.748 189.767C265.944 183.381 270.034 176.629 274.124 166.643C277.171 159.443 278.806 153.403 279.502 148.176L298.315 152.244C296.454 158.406 294.102 165.26 292.834 168.514C301.014 163.043 306.269 157.715 311.872 149.112L326.125 158.528C317.598 170.954 311.872 176.425 297.272 186.065C295.043 181.408 293.305 178.52 290.258 174.453C289.44 176.303 289.44 176.303 288.622 178.052V203.495C302.527 196.397 314.204 184.906 319.827 172.826H338.17C341.912 179.679 347.515 185.964 356.512 192.818C362.586 197.475 367.269 200.139 374.037 202.925C370.07 210.247 368.557 214.091 366.451 221.86C363.526 220.233 362.708 219.765 360.5 218.484V244.74C360.5 251.248 360.623 255.071 361.093 258.569H343.098V253.688H317.987V258.569H299.521C299.869 254.847 299.992 250.78 299.992 244.516V218.829C297.885 220.233 297.067 220.68 294.389 222.205C292.405 215.941 290.994 212.687 288.663 208.62V243.926H288.622ZM346.227 207.542C338.272 200.444 334.305 195.807 329.867 188.709C325.553 196.255 321.463 201.258 314.674 207.542H346.227ZM317.475 237.764H343.18V223.812H317.475V237.764ZM344.938 148.99C353.466 158.528 358.966 162.575 372.401 168.982C368.189 175.022 366.328 178.744 363.874 185.821C355.47 181.062 351.605 178.378 345.654 173.151C340.399 168.494 337.474 165.484 331.994 158.386L344.938 148.99Z" fill="black" stroke="black" stroke-width="1.587" stroke-miterlimit="10"/>
<path d="M67.2027 193.672C76.3229 199.245 82.1509 203.556 88.9399 209.698C95.3609 203.312 98.8781 198.309 103.786 188.547H65.9144C58.4301 196.682 52.2545 201.563 42.5412 207.014C38.5741 200.384 35.5272 196.56 30.3945 191.679C46.5288 184.357 56.6919 175.287 62.7652 162.515H45.4654C39.3921 162.515 35.6499 162.738 31.3352 163.206V144.841C35.5477 145.309 39.6375 145.533 45.4654 145.533H121.883C127.834 145.533 131.924 145.309 135.911 144.841V163.206C131.596 162.738 127.609 162.515 121.883 162.515H82.8461C81.2102 166.582 80.0446 168.677 78.0611 172.155H107.978C113.111 172.155 115.115 172.033 117.548 171.687L127.118 180.636C126.177 182.385 126.177 182.385 123.621 188.547C120.002 197.028 114.153 206.668 107.957 214.701C98.735 226.558 86.6905 235.609 70.1064 242.93C62.7448 246.306 56.4465 248.401 47.2036 250.841C43.7068 243.296 41.6006 239.798 36.4474 233.066C51.9886 230.85 63.665 226.904 75.0142 220.396C68.6954 214.579 63.7877 210.878 55.2605 205.529L67.2027 193.672Z" fill="white" stroke="black" stroke-width="1.5" stroke-miterlimit="10"/>
<path d="M163.968 210.191C161.044 210.191 158.59 210.313 156.607 210.313C156.729 208.91 156.832 207.649 156.832 204.965V202.402C153.56 202.402 150.411 202.524 147.139 202.748V191.603C149.818 191.948 152.046 192.07 156.832 192.07C156.709 190.789 156.709 190.789 156.361 188.593H172.598C172.25 189.976 172.127 190.565 172.127 192.07H182.066C181.943 190.789 181.943 190.789 181.595 188.816H197.607C197.259 189.976 197.136 190.667 197.136 192.07C201.349 192.07 202.167 191.948 204.968 191.603V202.748C202.514 202.402 201.921 202.402 197.136 202.402V204.965C197.136 207.995 197.136 209.032 197.361 210.313H196.196C194.335 210.191 193.394 210.191 190.122 210.191H185.092V212.632H196.666C200.879 212.632 202.146 212.632 204.15 212.51C203.925 214.828 203.925 215.296 203.925 219.242V222.374C203.925 226.217 203.925 226.909 204.15 229.573C200.879 229.349 199.713 229.349 196.441 229.349H185.337V232.136H201.349C202.862 232.136 203.332 232.136 204.498 232.136C205.786 228.76 206.482 226.095 206.829 222.841C207.524 217.493 207.995 208.544 207.995 201.568C207.995 195.996 207.77 192.05 207.402 189.589C211.267 189.813 213.352 189.935 220.141 189.935H238.361C246.193 189.935 247.584 189.935 250.856 189.589C250.631 192.62 250.508 195.406 250.508 201.446V236.895C250.508 247.125 246.071 250.379 232.513 250.379C231.47 250.379 230.652 250.379 225.499 250.257C224.558 243.749 223.863 240.718 221.757 235.491C222.922 235.613 223.74 235.715 224.333 235.837C226.44 236.061 229.118 236.305 230.284 236.305C233.331 236.305 234.599 235.613 234.599 233.864V229.919H221.389C219.63 238.644 216.604 245.376 211.226 251.884C205.97 247.003 205.152 246.413 199.304 242.711H185.276V243.403C185.276 246.881 185.399 248.63 185.746 251.07H168.447C168.794 248.752 168.917 246.657 168.917 243.403V242.711H157.936C152.905 242.711 150.104 242.833 146.484 243.179V231.668C149.634 232.014 152.68 232.136 158.161 232.136H168.917V229.349H157.343C153.478 229.349 152.905 229.349 149.511 229.573C149.736 227.6 149.736 226.319 149.736 222.475V219.221C149.736 215.276 149.736 214.34 149.511 212.489C151.494 212.611 152.905 212.611 157.097 212.611H169.019V210.171H163.968V210.191ZM167.363 155.117C161.289 155.117 158.59 155.239 154.398 155.462V142.446C158.836 142.914 163.273 143.036 169.694 143.036H230.325C236.746 143.036 241.081 142.914 245.396 142.446V155.462C241.183 155.239 238.627 155.117 232.533 155.117H207.545V157.903H239.445C244.353 157.903 248.668 157.781 252.533 157.557C252.185 160.344 252.062 162.316 252.062 167.319V172.79C252.062 177.793 252.185 179.522 252.655 182.674H235.478V168.845H207.545V175.109C207.545 180.458 207.668 183.712 208.015 186.722H190.266C190.613 183 190.736 179.4 190.736 175.109V168.845H164.214V182.674H146.914C147.384 179.644 147.507 177.326 147.507 172.79V167.319C147.507 162.56 147.384 160.466 147.037 157.557C151.004 157.781 153.457 157.903 160.124 157.903H190.736V155.117H167.363ZM163.15 219.608V222.74H169.817V219.608H163.15ZM167.485 179.868C168.651 180.091 169.714 180.091 172.618 180.091H182.311C186.401 179.969 186.401 179.969 187.341 179.868V186.376C185.93 186.152 185.01 186.152 182.311 186.152H172.618C169.939 186.152 168.999 186.152 167.485 186.376V179.868ZM167.588 171.163C168.999 171.387 169.817 171.387 172.618 171.387H182.434C185.112 171.387 186.298 171.387 187.464 171.163V177.793C185.828 177.57 185.48 177.57 182.434 177.57H172.618C170.042 177.57 169.346 177.57 167.588 177.793V171.163ZM172.148 203.236H182.086V200.45H172.148V203.236ZM184.417 222.74H191.083V219.608H184.417V222.74ZM232.206 177.773C230.223 177.549 229.875 177.549 227.176 177.549H215.949C213.373 177.549 212.678 177.549 210.919 177.773V171.143C212.432 171.367 213.025 171.367 215.949 171.367H227.176C230.1 171.367 230.673 171.367 232.206 171.143V177.773ZM232.206 186.376C230.693 186.152 229.527 186.152 227.176 186.152H215.949C213.618 186.152 212.33 186.152 210.919 186.376V179.868C212.432 180.091 213.25 180.091 215.949 180.091H227.176C229.855 180.091 230.673 180.091 232.206 179.868V186.376ZM223.086 215.784C222.963 217.411 222.963 217.981 222.861 219.73H234.66V215.784H223.086ZM234.66 201.832H223.331V205.676H234.66V201.832Z" fill="white" stroke="black" stroke-width="1.5" stroke-miterlimit="10"/>
<path d="M288.622 235.876C288.622 241.57 288.847 246.451 289.317 250.865H270.627C271.097 246.797 271.322 241.692 271.322 235.754V207.749C271.445 201.932 271.445 197.987 271.547 195.892C270.852 196.827 270.259 197.519 269.911 197.987C268.275 200.305 268.153 200.427 265.944 202.99C264.308 194.265 262.55 188.469 259.748 181.717C265.944 175.331 270.034 168.578 274.124 158.593C277.171 151.393 278.806 145.353 279.502 140.126L298.315 144.194C296.454 150.356 294.102 157.21 292.834 160.464C301.014 154.993 306.269 149.664 311.872 141.062L326.125 150.478C317.598 162.904 311.872 168.375 297.272 178.015C295.043 173.358 293.305 170.47 290.258 166.402C289.44 168.253 289.44 168.253 288.622 170.002V195.445C302.527 188.347 314.204 176.856 319.827 164.775H338.17C341.912 171.629 347.515 177.913 356.512 184.767C362.586 189.425 367.269 192.089 374.037 194.875C370.07 202.197 368.557 206.04 366.451 213.809C363.526 212.182 362.708 211.715 360.5 210.433V236.689C360.5 243.197 360.623 247.021 361.093 250.519H343.098V245.638H317.987V250.519H299.521C299.869 246.797 299.992 242.73 299.992 236.466V210.779C297.885 212.182 297.067 212.63 294.389 214.155C292.405 207.891 290.994 204.637 288.663 200.57V235.876H288.622ZM346.227 199.512C338.272 192.414 334.305 187.777 329.867 180.679C325.553 188.225 321.463 193.228 314.674 199.512H346.227ZM317.475 229.714H343.18V215.762H317.475V229.714ZM344.938 140.94C353.466 150.478 358.966 154.525 372.401 160.931C368.189 166.972 366.328 170.694 363.874 177.771C355.47 173.012 351.605 170.327 345.654 165.101C340.399 160.443 337.474 157.433 331.994 150.336L344.938 140.94Z" fill="white" stroke="black" stroke-width="1.5" stroke-miterlimit="10"/>
</svg>
